<svg width="255" height="107" viewBox="0 0 255 107" fill="none" xmlns="http://www.w3.org/2000/svg">
<rect x="58" y="64" width="37" height="29" fill="#161730"/>
<path d="M67.1961 1.00744L67.1355 1H67.0744H11.4831H10.5902L10.4895 1.8872L10.0386 5.85921L9.94748 6.66175L10.7129 6.91966L21.8204 10.6623V96.1734L10.6747 100.008L9.91587 100.269L10.0064 101.066L10.4573 105.038L10.5594 105.938L11.4644 105.925L32.4184 105.642L53.3079 105.925L54.2502 105.938L54.3188 104.998L54.6087 101.026L54.6647 100.26L53.9383 100.008L42.8554 96.1747V60.7518H56.3813H56.4983L56.6121 60.7247C59.809 59.9662 65.5734 58.5222 70.5321 57.2694C73.0128 56.6427 75.2941 56.0633 76.9552 55.6406C77.7858 55.4292 78.4614 55.257 78.9293 55.1377L79.4689 55L79.6096 54.964L79.6456 54.9549L79.6546 54.9525L79.6569 54.9519L79.6575 54.9518C79.6576 54.9518 79.6577 54.9517 79.4101 53.9829L79.6577 54.9517L80.0425 54.8534L80.255 54.5178L94.8453 31.4739L95.1563 30.9826L94.8832 30.4693L80.2929 3.04348L80.0485 2.58396L79.5318 2.52059L67.1961 1.00744ZM72.0171 40.6171L53.8075 53.0501L42.8876 51.0089V10.8541L53.7954 9.4382L72.0226 21.2089L77.4279 30.9375L72.0171 40.6171Z" stroke="white" stroke-width="2"/>
<rect y="64" width="179" height="24" fill="#161730"/>
<path d="M12.71 82.018H22.79V80.272H15.68C17.624 79.102 18.758 78.31 19.676 77.536C21.692 75.826 22.61 74.278 22.61 72.388C22.61 69.706 20.738 68.032 17.498 68.032C13.988 68.032 11.99 69.976 11.99 73.018C11.99 73.432 12.026 73.666 12.17 74.206H13.934C13.79 73.648 13.754 73.45 13.754 73.126C13.754 71.056 15.158 69.652 17.534 69.652C19.568 69.652 20.756 70.696 20.756 72.442C20.756 73.738 20.108 74.926 18.398 76.384C17.3 77.32 15.77 78.364 12.71 80.272V82.018ZM30.4393 82.288C34.4533 82.288 36.0733 78.94 36.0733 75.16C36.0733 71.38 34.4533 68.032 30.4393 68.032C26.4253 68.032 24.7693 71.38 24.7693 75.16C24.7693 78.94 26.4253 82.288 30.4393 82.288ZM30.4213 80.632C27.7393 80.632 26.5513 78.148 26.5513 75.16C26.5513 72.172 27.7393 69.688 30.4213 69.688C33.1033 69.688 34.2913 72.172 34.2913 75.16C34.2913 78.148 33.1033 80.632 30.4213 80.632ZM38.7784 82.018H48.8584V80.272H41.7484C43.6924 79.102 44.8264 78.31 45.7444 77.536C47.7604 75.826 48.6784 74.278 48.6784 72.388C48.6784 69.706 46.8064 68.032 43.5664 68.032C40.0564 68.032 38.0584 69.976 38.0584 73.018C38.0584 73.432 38.0944 73.666 38.2384 74.206H40.0024C39.8584 73.648 39.8224 73.45 39.8224 73.126C39.8224 71.056 41.2264 69.652 43.6024 69.652C45.6364 69.652 46.8244 70.696 46.8244 72.442C46.8244 73.738 46.1764 74.926 44.4664 76.384C43.3684 77.32 41.8384 78.364 38.7784 80.272V82.018ZM53.0517 82H54.7977V68.32H50.3337V70.066H53.0517V82ZM68.2767 82.018C72.2727 82.036 74.1447 79.372 74.1447 75.232C74.1447 70.498 71.6967 68.32 67.9527 68.32H62.9667L62.9487 82L68.2767 82.018ZM64.7487 80.29V70.03H67.9167C70.8687 70.03 72.2547 72.01 72.2547 75.142C72.2547 78.688 70.5267 80.29 67.9167 80.29H64.7487ZM80.1131 82.288C82.7411 82.288 84.1271 80.542 84.3071 79.264H82.5791C82.3271 79.93 81.4631 80.776 80.1131 80.776C78.4751 80.776 77.5571 79.642 77.3951 77.896L84.3071 77.878V76.402C84.3071 73.9 82.5251 72.262 80.0411 72.262C77.2511 72.262 75.6131 74.332 75.6131 77.248C75.6131 80.11 77.1791 82.288 80.1131 82.288ZM77.4131 76.492C77.4131 74.62 78.6191 73.774 80.0231 73.774C81.4271 73.774 82.5791 74.62 82.5791 76.492H77.4131ZM97.6939 72.262C96.4339 72.262 95.1199 72.694 94.1119 74.152C93.6079 72.874 92.5639 72.262 91.1059 72.262C89.8099 72.262 88.6219 72.73 87.8659 73.972V72.55H86.1199V82H87.8659V76.852C87.8659 74.908 89.0539 73.774 90.6739 73.774C91.6999 73.774 92.7079 74.242 92.7079 76.366V82H94.4539V76.852C94.4539 74.908 95.6419 73.774 97.2619 73.774C98.2879 73.774 99.2959 74.242 99.2959 76.366V82H101.042V76.24C101.042 73.54 99.7999 72.262 97.6939 72.262ZM107.414 82.288C110.168 82.288 111.968 80.092 111.968 77.266C111.968 74.35 110.168 72.262 107.414 72.262C104.66 72.262 102.824 74.35 102.824 77.266C102.824 80.092 104.66 82.288 107.414 82.288ZM107.396 80.776C105.578 80.776 104.57 79.372 104.57 77.266C104.57 75.178 105.578 73.774 107.396 73.774C109.214 73.774 110.222 75.178 110.222 77.266C110.222 79.372 109.214 80.776 107.396 80.776ZM121.417 82H123.379L127.105 70.192L130.831 82H132.793L136.591 68.32H134.575L131.803 79.858L128.257 68.32H125.953L122.407 79.858L119.635 68.32H117.619L121.417 82ZM140.898 82.288C143.526 82.288 144.912 80.542 145.092 79.264H143.364C143.112 79.93 142.248 80.776 140.898 80.776C139.26 80.776 138.342 79.642 138.18 77.896L145.092 77.878V76.402C145.092 73.9 143.31 72.262 140.826 72.262C138.036 72.262 136.398 74.332 136.398 77.248C136.398 80.11 137.964 82.288 140.898 82.288ZM138.198 76.492C138.198 74.62 139.404 73.774 140.808 73.774C142.212 73.774 143.364 74.62 143.364 76.492H138.198ZM150.865 82.288C153.493 82.288 154.879 80.542 155.059 79.264H153.331C153.079 79.93 152.215 80.776 150.865 80.776C149.227 80.776 148.309 79.642 148.147 77.896L155.059 77.878V76.402C155.059 73.9 153.277 72.262 150.793 72.262C148.003 72.262 146.365 74.332 146.365 77.248C146.365 80.11 147.931 82.288 150.865 82.288ZM148.165 76.492C148.165 74.62 149.371 73.774 150.775 73.774C152.179 73.774 153.331 74.62 153.331 76.492H148.165ZM164.252 82L160.184 77.266L163.892 72.55H161.876L158.618 76.69V68.32H156.872V82H158.618V77.788L162.236 82H164.252ZM177.572 78.094V76.528H170.372V78.094H177.572ZM185.187 82H186.969V75.466L192.873 82H195.105L189.183 75.466C192.207 75.466 194.547 74.764 194.547 71.974C194.547 69.49 192.819 68.32 189.975 68.32H185.187V82ZM186.969 73.936V69.94H189.921C191.883 69.94 192.747 70.75 192.747 71.956C192.747 73.306 191.487 73.936 190.191 73.936H186.969ZM200.033 82.288C202.787 82.288 204.587 80.092 204.587 77.266C204.587 74.35 202.787 72.262 200.033 72.262C197.279 72.262 195.443 74.35 195.443 77.266C195.443 80.092 197.279 82.288 200.033 82.288ZM200.015 80.776C198.197 80.776 197.189 79.372 197.189 77.266C197.189 75.178 198.197 73.774 200.015 73.774C201.833 73.774 202.841 75.178 202.841 77.266C202.841 79.372 201.833 80.776 200.015 80.776ZM209.38 82.288C210.676 82.288 211.864 81.82 212.62 80.398V82H214.366V72.55H212.62V77.698C212.62 79.642 211.432 80.776 209.812 80.776C208.786 80.776 207.778 80.308 207.778 78.184V72.55H206.032V78.31C206.032 81.01 207.274 82.288 209.38 82.288ZM216.602 82H218.348V76.852C218.348 74.908 219.59 73.774 221.048 73.774C222.434 73.774 223.19 74.818 223.19 76.546V82H224.936V76.06C224.936 73.846 223.64 72.262 221.516 72.262C220.436 72.262 219.122 72.676 218.348 73.972V72.55H216.602V82ZM234.329 68.32V73.828C233.591 72.874 232.421 72.262 231.251 72.262C228.659 72.262 226.931 74.26 226.931 77.248C226.931 80.272 228.623 82.288 231.161 82.288C232.403 82.288 233.735 81.694 234.383 80.812V82H236.075V68.32H234.329ZM234.329 77.68C234.329 79.534 233.213 80.758 231.521 80.758C229.811 80.758 228.677 79.354 228.677 77.23C228.677 75.16 229.793 73.792 231.485 73.792C233.195 73.792 234.329 74.926 234.329 76.636V77.68ZM247.865 82.288C251.231 82.288 253.481 79.246 253.481 74.692C253.481 69.958 251.321 68.032 248.081 68.032C244.985 68.032 242.861 69.94 242.861 72.784C242.861 75.592 244.769 77.464 247.541 77.464C249.161 77.464 250.853 76.708 251.735 75.574V75.898C251.735 78.796 250.079 80.722 247.811 80.722C246.155 80.722 244.967 80.074 244.823 79.102H242.933C243.185 81.01 245.165 82.288 247.865 82.288ZM248.045 75.844C245.921 75.844 244.517 74.638 244.517 72.82C244.517 70.912 245.921 69.652 248.045 69.652C250.187 69.652 251.609 70.912 251.609 72.82C251.609 74.638 250.187 75.844 248.045 75.844Z" fill="white"/>
</svg>
