<svg width="660" height="372" viewBox="0 0 660 372" fill="none" xmlns="http://www.w3.org/2000/svg">
<rect y="0.75" width="660" height="371.25" fill="black"/>
<path d="M350.406 105.995L350.345 105.987H350.284H294.693H293.8L293.699 106.875L293.249 110.847L293.157 111.649L293.923 111.907L305.03 115.65V201.161L293.885 204.995L293.126 205.256L293.216 206.054L293.667 210.026L293.769 210.925L294.674 210.913L315.628 210.629L336.518 210.913L337.46 210.925L337.529 209.986L337.819 206.014L337.875 205.247L337.148 204.996L326.065 201.162V165.739H339.591H339.708L339.822 165.712C343.019 164.954 348.783 163.509 353.742 162.257C356.223 161.63 358.504 161.051 360.165 160.628C360.996 160.417 361.671 160.244 362.139 160.125L362.679 159.987L362.82 159.951L362.856 159.942L362.865 159.94L362.867 159.939L362.867 159.939C362.868 159.939 362.868 159.939 362.62 158.97L362.868 159.939L363.252 159.841L363.465 159.505L378.055 136.461L378.366 135.97L378.093 135.457L363.503 108.031L363.258 107.571L362.742 107.508L350.406 105.995ZM355.227 145.604L337.018 158.037L326.098 155.996V115.841L337.005 114.426L355.233 126.196L360.638 135.925L355.227 145.604Z" stroke="white" stroke-width="2"/>
<path d="M209.71 238.366H219.79V236.62H212.68C214.624 235.45 215.758 234.658 216.676 233.884C218.692 232.174 219.61 230.626 219.61 228.736C219.61 226.054 217.738 224.38 214.498 224.38C210.988 224.38 208.99 226.324 208.99 229.366C208.99 229.78 209.026 230.014 209.17 230.554H210.934C210.79 229.996 210.754 229.798 210.754 229.474C210.754 227.404 212.158 226 214.534 226C216.568 226 217.756 227.044 217.756 228.79C217.756 230.086 217.108 231.274 215.398 232.732C214.3 233.668 212.77 234.712 209.71 236.62V238.366ZM227.439 238.636C231.453 238.636 233.073 235.288 233.073 231.508C233.073 227.728 231.453 224.38 227.439 224.38C223.425 224.38 221.769 227.728 221.769 231.508C221.769 235.288 223.425 238.636 227.439 238.636ZM227.421 236.98C224.739 236.98 223.551 234.496 223.551 231.508C223.551 228.52 224.739 226.036 227.421 226.036C230.103 226.036 231.291 228.52 231.291 231.508C231.291 234.496 230.103 236.98 227.421 236.98ZM235.778 238.366H245.858V236.62H238.748C240.692 235.45 241.826 234.658 242.744 233.884C244.76 232.174 245.678 230.626 245.678 228.736C245.678 226.054 243.806 224.38 240.566 224.38C237.056 224.38 235.058 226.324 235.058 229.366C235.058 229.78 235.094 230.014 235.238 230.554H237.002C236.858 229.996 236.822 229.798 236.822 229.474C236.822 227.404 238.226 226 240.602 226C242.636 226 243.824 227.044 243.824 228.79C243.824 230.086 243.176 231.274 241.466 232.732C240.368 233.668 238.838 234.712 235.778 236.62V238.366ZM250.052 238.348H251.798V224.668H247.334V226.414H250.052V238.348ZM265.277 238.366C269.273 238.384 271.145 235.72 271.145 231.58C271.145 226.846 268.697 224.668 264.953 224.668H259.967L259.949 238.348L265.277 238.366ZM261.749 236.638V226.378H264.917C267.869 226.378 269.255 228.358 269.255 231.49C269.255 235.036 267.527 236.638 264.917 236.638H261.749ZM277.113 238.636C279.741 238.636 281.127 236.89 281.307 235.612H279.579C279.327 236.278 278.463 237.124 277.113 237.124C275.475 237.124 274.557 235.99 274.395 234.244L281.307 234.226V232.75C281.307 230.248 279.525 228.61 277.041 228.61C274.251 228.61 272.613 230.68 272.613 233.596C272.613 236.458 274.179 238.636 277.113 238.636ZM274.413 232.84C274.413 230.968 275.619 230.122 277.023 230.122C278.427 230.122 279.579 230.968 279.579 232.84H274.413ZM294.694 228.61C293.434 228.61 292.12 229.042 291.112 230.5C290.608 229.222 289.564 228.61 288.106 228.61C286.81 228.61 285.622 229.078 284.866 230.32V228.898H283.12V238.348H284.866V233.2C284.866 231.256 286.054 230.122 287.674 230.122C288.7 230.122 289.708 230.59 289.708 232.714V238.348H291.454V233.2C291.454 231.256 292.642 230.122 294.262 230.122C295.288 230.122 296.296 230.59 296.296 232.714V238.348H298.042V232.588C298.042 229.888 296.8 228.61 294.694 228.61ZM304.414 238.636C307.168 238.636 308.968 236.44 308.968 233.614C308.968 230.698 307.168 228.61 304.414 228.61C301.66 228.61 299.824 230.698 299.824 233.614C299.824 236.44 301.66 238.636 304.414 238.636ZM304.396 237.124C302.578 237.124 301.57 235.72 301.57 233.614C301.57 231.526 302.578 230.122 304.396 230.122C306.214 230.122 307.222 231.526 307.222 233.614C307.222 235.72 306.214 237.124 304.396 237.124ZM318.417 238.348H320.379L324.105 226.54L327.831 238.348H329.793L333.591 224.668H331.575L328.803 236.206L325.257 224.668H322.953L319.407 236.206L316.635 224.668H314.619L318.417 238.348ZM337.898 238.636C340.526 238.636 341.912 236.89 342.092 235.612H340.364C340.112 236.278 339.248 237.124 337.898 237.124C336.26 237.124 335.342 235.99 335.18 234.244L342.092 234.226V232.75C342.092 230.248 340.31 228.61 337.826 228.61C335.036 228.61 333.398 230.68 333.398 233.596C333.398 236.458 334.964 238.636 337.898 238.636ZM335.198 232.84C335.198 230.968 336.404 230.122 337.808 230.122C339.212 230.122 340.364 230.968 340.364 232.84H335.198ZM347.865 238.636C350.493 238.636 351.879 236.89 352.059 235.612H350.331C350.079 236.278 349.215 237.124 347.865 237.124C346.227 237.124 345.309 235.99 345.147 234.244L352.059 234.226V232.75C352.059 230.248 350.277 228.61 347.793 228.61C345.003 228.61 343.365 230.68 343.365 233.596C343.365 236.458 344.931 238.636 347.865 238.636ZM345.165 232.84C345.165 230.968 346.371 230.122 347.775 230.122C349.179 230.122 350.331 230.968 350.331 232.84H345.165ZM361.252 238.348L357.184 233.614L360.892 228.898H358.876L355.618 233.038V224.668H353.872V238.348H355.618V234.136L359.236 238.348H361.252ZM374.572 234.442V232.876H367.372V234.442H374.572ZM382.187 238.348H383.969V231.814L389.873 238.348H392.105L386.183 231.814C389.207 231.814 391.547 231.112 391.547 228.322C391.547 225.838 389.819 224.668 386.975 224.668H382.187V238.348ZM383.969 230.284V226.288H386.921C388.883 226.288 389.747 227.098 389.747 228.304C389.747 229.654 388.487 230.284 387.191 230.284H383.969ZM397.033 238.636C399.787 238.636 401.587 236.44 401.587 233.614C401.587 230.698 399.787 228.61 397.033 228.61C394.279 228.61 392.443 230.698 392.443 233.614C392.443 236.44 394.279 238.636 397.033 238.636ZM397.015 237.124C395.197 237.124 394.189 235.72 394.189 233.614C394.189 231.526 395.197 230.122 397.015 230.122C398.833 230.122 399.841 231.526 399.841 233.614C399.841 235.72 398.833 237.124 397.015 237.124ZM406.38 238.636C407.676 238.636 408.864 238.168 409.62 236.746V238.348H411.366V228.898H409.62V234.046C409.62 235.99 408.432 237.124 406.812 237.124C405.786 237.124 404.778 236.656 404.778 234.532V228.898H403.032V234.658C403.032 237.358 404.274 238.636 406.38 238.636ZM413.602 238.348H415.348V233.2C415.348 231.256 416.59 230.122 418.048 230.122C419.434 230.122 420.19 231.166 420.19 232.894V238.348H421.936V232.408C421.936 230.194 420.64 228.61 418.516 228.61C417.436 228.61 416.122 229.024 415.348 230.32V228.898H413.602V238.348ZM431.329 224.668V230.176C430.591 229.222 429.421 228.61 428.251 228.61C425.659 228.61 423.931 230.608 423.931 233.596C423.931 236.62 425.623 238.636 428.161 238.636C429.403 238.636 430.735 238.042 431.383 237.16V238.348H433.075V224.668H431.329ZM431.329 234.028C431.329 235.882 430.213 237.106 428.521 237.106C426.811 237.106 425.677 235.702 425.677 233.578C425.677 231.508 426.793 230.14 428.485 230.14C430.195 230.14 431.329 231.274 431.329 232.984V234.028ZM444.865 238.636C448.231 238.636 450.481 235.594 450.481 231.04C450.481 226.306 448.321 224.38 445.081 224.38C441.985 224.38 439.861 226.288 439.861 229.132C439.861 231.94 441.769 233.812 444.541 233.812C446.161 233.812 447.853 233.056 448.735 231.922V232.246C448.735 235.144 447.079 237.07 444.811 237.07C443.155 237.07 441.967 236.422 441.823 235.45H439.933C440.185 237.358 442.165 238.636 444.865 238.636ZM445.045 232.192C442.921 232.192 441.517 230.986 441.517 229.168C441.517 227.26 442.921 226 445.045 226C447.187 226 448.609 227.26 448.609 229.168C448.609 230.986 447.187 232.192 445.045 232.192Z" fill="white"/>
<path d="M315.44 209.912V213.657L318.552 211.575L355.092 187.13L357.577 185.468L355.092 183.806L318.552 159.361L315.44 157.279V161.023V165.838V209.912Z" fill="#FF0080" stroke="black" stroke-width="4"/>
</svg>
