<svg xmlns="http://www.w3.org/2000/svg" viewBox="0 0 485.99 273.26"><defs><style>.cls-1{fill:none;stroke:#000;stroke-linecap:round;stroke-linejoin:round;stroke-width:0.75px;}</style></defs><g id="Make2D::Visible::Curves"><path class="cls-1" d="M393.71,161a10.83,10.83,0,0,0-10.65,6.15"/><path class="cls-1" d="M383.11,154.91l-.05,0"/><path class="cls-1" d="M358.45,147.45a16.47,16.47,0,0,0-8.67,5"/><path class="cls-1" d="M352,143.73a21.43,21.43,0,0,0-2.23,1.28"/><path class="cls-1" d="M334,140.68a18.37,18.37,0,0,0-5.78.08,16.54,16.54,0,0,0-5.43,2,17.43,17.43,0,0,0-7.37,8.68"/><path class="cls-1" d="M319.57,132.35a24.42,24.42,0,0,0-4.15,2.39"/><path class="cls-1" d="M325.27,135.64a20.26,20.26,0,0,0-9.85,5.69"/><path class="cls-1" d="M395.29,171.5a3.38,3.38,0,0,0-4,2.28"/><path class="cls-1" d="M395.29,169.07a5.17,5.17,0,0,0-6.06,3.5"/><path class="cls-1" d="M395.29,165a8.16,8.16,0,0,0-9.55,5.51"/><path class="cls-1" d="M365.93,165.85a3.38,3.38,0,0,0-4,2.29"/><path class="cls-1" d="M365.93,163.42a5.17,5.17,0,0,0-6.06,3.5"/><path class="cls-1" d="M365.93,159.39a8.15,8.15,0,0,0-9.55,5.52"/><path class="cls-1" d="M335,159.29a3.39,3.39,0,0,0-4,2.29"/><path class="cls-1" d="M335,156.86a5.19,5.19,0,0,0-6.07,3.5"/><path class="cls-1" d="M335,149a11,11,0,0,0-12.85,7.43"/><path class="cls-1" d="M335,152.83a8.17,8.17,0,0,0-9.56,5.52"/><path class="cls-1" d="M300.83,150.87a3.38,3.38,0,0,0-4,2.29"/><path class="cls-1" d="M300.83,148.44a5.18,5.18,0,0,0-6.07,3.5"/><path class="cls-1" d="M300.83,140.6A11,11,0,0,0,288,148"/><path class="cls-1" d="M300.83,144.41a8.16,8.16,0,0,0-9.55,5.51"/><path class="cls-1" d="M301,127.08a21.75,21.75,0,0,0-15,2.14,21.51,21.51,0,0,0-9.65,11.68"/><path class="cls-1" d="M300.83,132.42a17,17,0,0,0-19.93,11.51"/><path class="cls-1" d="M281.72,116.15a29.19,29.19,0,0,0-5.36,3.1"/><path class="cls-1" d="M291.94,122.05a23.74,23.74,0,0,0-15.58,9"/><path class="cls-1" d="M388.07,157.77a13.32,13.32,0,0,0-5,2.89"/><path class="cls-1" d="M365.93,151.77a13.79,13.79,0,0,0-16.15,9.33"/><path class="cls-1" d="M365.93,155.58A11,11,0,0,0,353.08,163"/><path class="cls-1" d="M335,145.22a13.77,13.77,0,0,0-16.15,9.32"/><path class="cls-1" d="M300.83,136.79a13.79,13.79,0,0,0-16.15,9.33"/><line class="cls-1" x1="50.99" y1="208.16" x2="-0.65" y2="178.34"/><line class="cls-1" x1="50.99" y1="196.86" x2="-0.65" y2="167.04"/><line class="cls-1" x1="66.66" y1="166.34" x2="-0.65" y2="127.47"/><line class="cls-1" x1="66.66" y1="157.86" x2="-0.65" y2="119"/><line class="cls-1" x1="136.51" y1="140.22" x2="-0.65" y2="94.5"/><line class="cls-1" x1="136.51" y1="145.3" x2="-0.65" y2="99.58"/><line class="cls-1" x1="277.09" y1="-0.37" x2="136.51" y2="140.22"/><line class="cls-1" x1="282.18" y1="-0.37" x2="136.51" y2="145.3"/><line class="cls-1" x1="340.72" y1="-0.37" x2="202.21" y2="79.6"/><line class="cls-1" x1="355.4" y1="-0.37" x2="182.16" y2="99.65"/><line class="cls-1" x1="315.42" y1="129.95" x2="486.64" y2="31.1"/><line class="cls-1" x1="349.78" y1="142.45" x2="486.64" y2="63.43"/><line class="cls-1" x1="383.06" y1="154.88" x2="486.64" y2="95.07"/><line class="cls-1" x1="300.83" y1="127.18" x2="486.64" y2="19.91"/><line class="cls-1" x1="276.36" y1="113.05" x2="472.81" y2="-0.37"/><line class="cls-1" x1="335" y1="141.26" x2="486.64" y2="53.71"/><line class="cls-1" x1="365.93" y1="151.77" x2="486.64" y2="82.08"/><line class="cls-1" x1="395.29" y1="161.94" x2="486.64" y2="109.2"/><line class="cls-1" x1="395.29" y1="176.07" x2="486.64" y2="123.33"/><line class="cls-1" x1="412.18" y1="-0.37" x2="50.99" y2="208.16"/><line class="cls-1" x1="392.6" y1="-0.37" x2="50.99" y2="196.86"/><line class="cls-1" x1="106.01" y1="135.14" x2="66.66" y2="157.86"/><line class="cls-1" x1="115.32" y1="138.24" x2="66.66" y2="166.34"/><line class="cls-1" x1="66.66" y1="157.86" x2="66.66" y2="166.34"/><line class="cls-1" x1="136.51" y1="140.22" x2="136.51" y2="145.3"/><line class="cls-1" x1="50.99" y1="196.86" x2="50.99" y2="208.16"/><path class="cls-1" d="M236.51,215.07a2.21,2.21,0,0,0-.82-1.66,3.3,3.3,0,0,0-1.73-.73,3.13,3.13,0,0,0-1.85.35,2.08,2.08,0,0,0-1.09,1.48"/><path class="cls-1" d="M233.5,235a2.2,2.2,0,0,0-.83-1.65,3.16,3.16,0,0,0-1.73-.73,3.06,3.06,0,0,0-1.85.35,2.08,2.08,0,0,0-1.09,1.48"/><line class="cls-1" x1="236.49" y1="215.34" x2="233.48" y2="235.25"/><line class="cls-1" x1="228" y1="234.42" x2="231.02" y2="214.51"/><path class="cls-1" d="M236.49,215.34a1.23,1.23,0,0,0,0-.27"/><line class="cls-1" x1="149.96" y1="184.89" x2="150.43" y2="182.87"/><line class="cls-1" x1="150.43" y1="182.87" x2="149.88" y2="182.25"/><line class="cls-1" x1="151.52" y1="183.22" x2="150.42" y2="181.98"/><line class="cls-1" x1="148.84" y1="182.76" x2="148.37" y2="184.78"/><line class="cls-1" x1="151.52" y1="183.22" x2="150.43" y2="182.87"/><path class="cls-1" d="M139.27,182.75a4.49,4.49,0,0,1,.73-3.29,3.48,3.48,0,0,1,1.27-1.14,2.21,2.21,0,0,1,1.67-.18"/><line class="cls-1" x1="149.55" y1="184.76" x2="150.02" y2="182.74"/><line class="cls-1" x1="150.02" y1="182.74" x2="149.67" y2="182.35"/><line class="cls-1" x1="149.96" y1="184.89" x2="149.55" y2="184.76"/><line class="cls-1" x1="150.43" y1="182.87" x2="150.02" y2="182.74"/><line class="cls-1" x1="150.85" y1="177.39" x2="151.29" y2="177.52"/><line class="cls-1" x1="147.3" y1="190.06" x2="146.87" y2="189.92"/><path class="cls-1" d="M150.85,177.39l.22.07"/><path class="cls-1" d="M147.3,190.06a4.1,4.1,0,0,0,2.25,0,5.39,5.39,0,0,0,2-1.06,8.23,8.23,0,0,0,2.61-8.23,5.39,5.39,0,0,0-1-2,4,4,0,0,0-1.84-1.27"/><path class="cls-1" d="M146.87,189.92a4,4,0,0,1-2-1.48,5.78,5.78,0,0,1-1-2.31"/><line class="cls-1" x1="142.94" y1="178.14" x2="145.9" y2="179.08"/><path class="cls-1" d="M140.85,184.74a2.13,2.13,0,0,1-1.06-.78,3.18,3.18,0,0,1-.52-1.21"/><line class="cls-1" x1="148.93" y1="185.4" x2="149.96" y2="184.89"/><line class="cls-1" x1="148.72" y1="185.17" x2="149.55" y2="184.76"/><path class="cls-1" d="M147.09,190l-.22-.06"/><line class="cls-1" x1="149.48" y1="186.02" x2="151.05" y2="185.23"/><line class="cls-1" x1="151.05" y1="185.23" x2="151.52" y2="183.22"/><line class="cls-1" x1="151.05" y1="185.23" x2="149.96" y2="184.89"/><path class="cls-1" d="M145.76,186.09a4.87,4.87,0,0,0,.71,1.79,3.47,3.47,0,0,0,1.4,1.23,3.14,3.14,0,0,0,1.86.28,4.45,4.45,0,0,0,1.76-.71,5.67,5.67,0,0,0,1.29-1.25,6.64,6.64,0,0,0,1-1.76,7.43,7.43,0,0,0,.46-2,6.32,6.32,0,0,0-.09-1.79,4.72,4.72,0,0,0-.72-1.79,3.47,3.47,0,0,0-1.39-1.24,3.18,3.18,0,0,0-1.87-.27,4.13,4.13,0,0,0-1.75.71,5.89,5.89,0,0,0-1.3,1.24,7.07,7.07,0,0,0-1,1.76,7.15,7.15,0,0,0-.46,2A6.39,6.39,0,0,0,145.76,186.09Z"/><path class="cls-1" d="M237.11,214a1.29,1.29,0,0,1,.44-1.19"/><path class="cls-1" d="M237.55,212.84a1,1,0,0,1,.83-.1,2.49,2.49,0,0,1,.77.37,4.72,4.72,0,0,1,1.17,1.23,4.51,4.51,0,0,1,.65,1.57,2.21,2.21,0,0,1,0,.85,1,1,0,0,1-.43.72"/><path class="cls-1" d="M240.57,217.48a1,1,0,0,1-.66.13,2.08,2.08,0,0,1-.65-.22,4.07,4.07,0,0,1-1-.88,5.07,5.07,0,0,1-.74-1.16,3.56,3.56,0,0,1-.36-1.32"/><line class="cls-1" x1="228.09" y1="130.88" x2="277.04" y2="159.14"/><line class="cls-1" x1="274.27" y1="163.93" x2="225.32" y2="135.67"/><path class="cls-1" d="M228.09,130.88a1.12,1.12,0,0,0-.84-.09,2.31,2.31,0,0,0-.79.38,4.51,4.51,0,0,0-1.7,3,2.28,2.28,0,0,0,.06.86,1.13,1.13,0,0,0,.5.69"/><line class="cls-1" x1="213.41" y1="139.35" x2="252.56" y2="161.96"/><line class="cls-1" x1="249.8" y1="166.76" x2="210.64" y2="144.15"/><path class="cls-1" d="M213.41,139.35a1.15,1.15,0,0,0-.85-.08,2.27,2.27,0,0,0-.78.38,4.46,4.46,0,0,0-1.7,2.94,2.32,2.32,0,0,0,.06.87,1.13,1.13,0,0,0,.5.69"/><path class="cls-1" d="M168.2,168.81a2.44,2.44,0,0,0-.18-1.41"/><path class="cls-1" d="M169.06,177.65a1.26,1.26,0,0,0-.1-.74"/><path class="cls-1" d="M168.41,177.79a2.38,2.38,0,0,1-.84,1.32,4.49,4.49,0,0,1-1.36.82,3.93,3.93,0,0,1-1.56.28,2.05,2.05,0,0,1-.77-.17,1.11,1.11,0,0,1-.58-.53"/><line class="cls-1" x1="156.07" y1="172.9" x2="155.84" y2="172.38"/><line class="cls-1" x1="167.79" y1="166.89" x2="168.02" y2="167.4"/><path class="cls-1" d="M156.07,172.9a2.81,2.81,0,0,0,1.82,1.43,6.28,6.28,0,0,0,2.36.21"/><path class="cls-1" d="M155.84,172.38a2.55,2.55,0,0,1-.12-1.7,4.69,4.69,0,0,1,.75-1.56"/><line class="cls-1" x1="156.47" y1="169.12" x2="156.96" y2="168.43"/><line class="cls-1" x1="164.05" y1="165.17" x2="164.89" y2="165.25"/><path class="cls-1" d="M157,168.43a8.15,8.15,0,0,1,3.16-2.48,8,8,0,0,1,3.93-.78"/><path class="cls-1" d="M164.89,165.25a4.7,4.7,0,0,1,1.68.44,2.54,2.54,0,0,1,1.22,1.2"/><path class="cls-1" d="M162.68,179.8a1.36,1.36,0,0,0,.71.67,2.91,2.91,0,0,0,1,.21,5.23,5.23,0,0,0,1.95-.36,5.46,5.46,0,0,0,1.7-1,3,3,0,0,0,1.05-1.65"/><path class="cls-1" d="M156,172.63a2,2,0,0,1-.13-.25"/><path class="cls-1" d="M166.54,171.64a5.39,5.39,0,0,0,1.66-2.83"/><path class="cls-1" d="M156.47,169.12a9.52,9.52,0,0,1,3.75-2.94,9.62,9.62,0,0,1,4.67-.93"/><path class="cls-1" d="M165.19,168.7a1.45,1.45,0,0,0-.8-.7,2.79,2.79,0,0,0-1.07-.17,5.11,5.11,0,0,0-2.11.5,5.39,5.39,0,0,0-1.76,1.27,3,3,0,0,0-.56.93,1.42,1.42,0,0,0,0,1.07"/><path class="cls-1" d="M169,176.91a1.35,1.35,0,0,0-.8-.7,2.8,2.8,0,0,0-1.07-.18,5.49,5.49,0,0,0-2.11.5,5.38,5.38,0,0,0-1.75,1.28,2.6,2.6,0,0,0-.56.93,1.39,1.39,0,0,0,0,1.06"/><path class="cls-1" d="M163.3,179.51a1.22,1.22,0,0,1,0-.92,2.45,2.45,0,0,1,.53-.78,4.37,4.37,0,0,1,1.58-1,3.69,3.69,0,0,1,1.86-.25,1.55,1.55,0,0,1,.85.39,1,1,0,0,1,.27.87"/><path class="cls-1" d="M174.21,175.87a4.61,4.61,0,0,1-1.32-1.09,2.59,2.59,0,0,1-.6-1.59"/><line class="cls-1" x1="185.44" y1="172.62" x2="185.44" y2="173.19"/><line class="cls-1" x1="172.29" y1="173.19" x2="172.29" y2="172.62"/><path class="cls-1" d="M185.44,172.62a2.83,2.83,0,0,0-1.05-2.06,6.31,6.31,0,0,0-2.07-1.16"/><path class="cls-1" d="M185.44,173.19a2.59,2.59,0,0,1-.6,1.59,4.65,4.65,0,0,1-1.33,1.09"/><line class="cls-1" x1="174.95" y1="176.3" x2="174.21" y2="175.87"/><line class="cls-1" x1="183.51" y1="175.87" x2="182.78" y2="176.3"/><path class="cls-1" d="M182.78,176.3a8.71,8.71,0,0,1-7.83,0"/><path class="cls-1" d="M182.32,163.58a1.41,1.41,0,0,0-.43-1,2.73,2.73,0,0,0-.9-.6,5.47,5.47,0,0,0-4.25,0,2.73,2.73,0,0,0-.9.6,1.42,1.42,0,0,0-.44,1"/><path class="cls-1" d="M175.4,172.62a1.35,1.35,0,0,0,.32.84,2.44,2.44,0,0,0,.7.58"/><path class="cls-1" d="M175.4,169.4a6.37,6.37,0,0,0-2.06,1.16,2.83,2.83,0,0,0-1.05,2.06"/><path class="cls-1" d="M174.21,175.31a8.6,8.6,0,0,0,3.11,1,11.2,11.2,0,0,0,3.27,0,8.51,8.51,0,0,0,3.08-1.07,4.5,4.5,0,0,0,1.22-1.08,2.52,2.52,0,0,0,.55-1.52"/><path class="cls-1" d="M176.42,165a4.45,4.45,0,0,0,1.63.52,5.83,5.83,0,0,0,1.72,0,4.47,4.47,0,0,0,1.62-.56,2.52,2.52,0,0,0,.65-.57,1.34,1.34,0,0,0,.28-.8"/><path class="cls-1" d="M176.42,174a4.66,4.66,0,0,0,1.63.53,6.19,6.19,0,0,0,1.72,0,4.29,4.29,0,0,0,1.62-.56,2.52,2.52,0,0,0,.65-.57,1.34,1.34,0,0,0,.28-.8"/><path class="cls-1" d="M176.91,164.71a1.82,1.82,0,0,1-.67-.62,1,1,0,0,1-.1-.79,1.39,1.39,0,0,1,.47-.65,2.82,2.82,0,0,1,.82-.44,4.58,4.58,0,0,1,1.72-.22,4.3,4.3,0,0,1,.94.16,3.12,3.12,0,0,1,.73.3,1.76,1.76,0,0,1,.67.63,1,1,0,0,1,.1.79,1.43,1.43,0,0,1-.47.64,2.6,2.6,0,0,1-.82.44,4.44,4.44,0,0,1-1.73.22,4.32,4.32,0,0,1-.93-.16A2.74,2.74,0,0,1,176.91,164.71Z"/><path class="cls-1" d="M172.29,172.62a2.54,2.54,0,0,0,.6,1.59,4.64,4.64,0,0,0,1.32,1.1"/><path class="cls-1" d="M183.51,175.87a10.21,10.21,0,0,1-9.3,0"/><path class="cls-1" d="M175.4,163.58a1.37,1.37,0,0,0,.32.84,2.61,2.61,0,0,0,.7.58"/><line class="cls-1" x1="395.29" y1="161.94" x2="395.29" y2="176.07"/><line class="cls-1" x1="395.29" y1="176.07" x2="383.06" y2="169"/><line class="cls-1" x1="365.93" y1="151.77" x2="365.93" y2="170.42"/><line class="cls-1" x1="365.93" y1="170.42" x2="383.06" y2="160.54"/><line class="cls-1" x1="365.93" y1="170.42" x2="349.78" y2="161.1"/><line class="cls-1" x1="335" y1="141.26" x2="335" y2="163.87"/><line class="cls-1" x1="335" y1="163.87" x2="349.78" y2="155.33"/><line class="cls-1" x1="335" y1="163.87" x2="315.42" y2="152.56"/><line class="cls-1" x1="349.78" y1="142.45" x2="365.93" y2="151.77"/><line class="cls-1" x1="383.06" y1="154.88" x2="395.29" y2="161.94"/><line class="cls-1" x1="176.05" y1="196.43" x2="185.35" y2="201.8"/><line class="cls-1" x1="185.35" y1="203.5" x2="176.05" y2="208.87"/><line class="cls-1" x1="185.35" y1="204.63" x2="176.05" y2="210"/><line class="cls-1" x1="173.11" y1="208.87" x2="163.81" y2="203.5"/><line class="cls-1" x1="173.11" y1="210" x2="163.81" y2="204.63"/><line class="cls-1" x1="163.81" y1="201.8" x2="173.11" y2="196.43"/><line class="cls-1" x1="185.35" y1="204.63" x2="185.35" y2="203.5"/><line class="cls-1" x1="176.05" y1="210" x2="176.05" y2="208.87"/><line class="cls-1" x1="173.11" y1="210" x2="173.11" y2="208.87"/><line class="cls-1" x1="163.81" y1="204.63" x2="163.81" y2="203.5"/><path class="cls-1" d="M185.35,201.8a1.07,1.07,0,0,1,.61.85"/><path class="cls-1" d="M173.11,196.43a3.24,3.24,0,0,1,2.94,0"/><path class="cls-1" d="M176.05,208.87a3.3,3.3,0,0,1-2.94,0"/><path class="cls-1" d="M176.05,210a3.3,3.3,0,0,1-2.94,0"/><path class="cls-1" d="M163.81,204.63a1.06,1.06,0,0,1-.6-.85"/><line class="cls-1" x1="185.96" y1="202.65" x2="185.96" y2="203.78"/><path class="cls-1" d="M186,203.78a1.07,1.07,0,0,1-.61.85"/><line class="cls-1" x1="163.21" y1="203.78" x2="163.21" y2="202.65"/><path class="cls-1" d="M163.21,202.65a1.06,1.06,0,0,1,.6-.85"/><path class="cls-1" d="M163.81,203.5a1.06,1.06,0,0,1-.6-.85"/><path class="cls-1" d="M186,202.65a1.07,1.07,0,0,1-.61.85"/><line class="cls-1" x1="160.39" y1="205.47" x2="169.69" y2="210.84"/><line class="cls-1" x1="169.69" y1="212.54" x2="160.39" y2="217.91"/><line class="cls-1" x1="169.69" y1="213.67" x2="160.39" y2="219.04"/><line class="cls-1" x1="157.45" y1="217.91" x2="148.15" y2="212.54"/><line class="cls-1" x1="157.45" y1="219.04" x2="148.15" y2="213.67"/><line class="cls-1" x1="148.15" y1="210.84" x2="157.45" y2="205.47"/><line class="cls-1" x1="169.69" y1="213.67" x2="169.69" y2="212.54"/><line class="cls-1" x1="160.39" y1="219.04" x2="160.39" y2="217.91"/><line class="cls-1" x1="157.45" y1="219.04" x2="157.45" y2="217.91"/><line class="cls-1" x1="148.15" y1="213.67" x2="148.15" y2="212.54"/><path class="cls-1" d="M169.69,210.84a1.07,1.07,0,0,1,.61.85"/><path class="cls-1" d="M157.45,205.47a3.3,3.3,0,0,1,2.94,0"/><path class="cls-1" d="M160.39,217.91a3.24,3.24,0,0,1-2.94,0"/><path class="cls-1" d="M160.39,219a3.24,3.24,0,0,1-2.94,0"/><path class="cls-1" d="M148.15,213.67a1.07,1.07,0,0,1-.61-.85"/><line class="cls-1" x1="170.3" y1="211.69" x2="170.3" y2="212.82"/><path class="cls-1" d="M170.3,212.82a1.07,1.07,0,0,1-.61.85"/><line class="cls-1" x1="147.54" y1="212.82" x2="147.54" y2="211.69"/><path class="cls-1" d="M147.54,211.69a1.07,1.07,0,0,1,.61-.85"/><path class="cls-1" d="M148.15,212.54a1.07,1.07,0,0,1-.61-.85"/><path class="cls-1" d="M170.3,211.69a1.07,1.07,0,0,1-.61.85"/><path class="cls-1" d="M135.91,201.52a4.88,4.88,0,0,0,1.4-1.16,2.65,2.65,0,0,0,.63-1.67"/><line class="cls-1" x1="124.1" y1="198.69" x2="124.1" y2="197.84"/><line class="cls-1" x1="137.94" y1="197.84" x2="137.94" y2="198.69"/><path class="cls-1" d="M124.1,198.69a2.69,2.69,0,0,0,.57,1.6,4.69,4.69,0,0,0,1.3,1.13,8.7,8.7,0,0,0,3.24,1.13,12,12,0,0,0,3.44,0,9.19,9.19,0,0,0,3.26-1.06"/><path class="cls-1" d="M135.91,200.67a4.88,4.88,0,0,0,1.4-1.16,2.65,2.65,0,0,0,.63-1.67"/><line class="cls-1" x1="176.05" y1="214.52" x2="185.35" y2="219.89"/><line class="cls-1" x1="185.35" y1="221.58" x2="176.05" y2="226.95"/><line class="cls-1" x1="185.35" y1="222.71" x2="176.05" y2="228.08"/><line class="cls-1" x1="173.11" y1="226.95" x2="163.81" y2="221.58"/><line class="cls-1" x1="173.11" y1="228.08" x2="163.81" y2="222.71"/><line class="cls-1" x1="163.81" y1="219.89" x2="173.11" y2="214.52"/><line class="cls-1" x1="185.35" y1="222.71" x2="185.35" y2="221.58"/><line class="cls-1" x1="176.05" y1="228.08" x2="176.05" y2="226.95"/><line class="cls-1" x1="173.11" y1="228.08" x2="173.11" y2="226.95"/><line class="cls-1" x1="163.81" y1="222.71" x2="163.81" y2="221.58"/><path class="cls-1" d="M185.35,219.89a1.07,1.07,0,0,1,.61.84"/><path class="cls-1" d="M173.11,214.52a3.24,3.24,0,0,1,2.94,0"/><path class="cls-1" d="M176.05,227a3.24,3.24,0,0,1-2.94,0"/><path class="cls-1" d="M176.05,228.08a3.24,3.24,0,0,1-2.94,0"/><path class="cls-1" d="M163.81,222.71a1.06,1.06,0,0,1-.6-.85"/><line class="cls-1" x1="185.96" y1="220.73" x2="185.96" y2="221.86"/><path class="cls-1" d="M186,221.86a1.07,1.07,0,0,1-.61.85"/><line class="cls-1" x1="163.21" y1="221.86" x2="163.21" y2="220.73"/><path class="cls-1" d="M163.21,220.73a1.06,1.06,0,0,1,.6-.84"/><path class="cls-1" d="M163.81,221.58a1.06,1.06,0,0,1-.6-.85"/><path class="cls-1" d="M186,220.73a1.07,1.07,0,0,1-.61.85"/><line class="cls-1" x1="191.87" y1="151.79" x2="216.34" y2="165.92"/><line class="cls-1" x1="213.58" y1="170.71" x2="189.1" y2="156.58"/><path class="cls-1" d="M191.87,151.79a1.12,1.12,0,0,0-.84-.09,2.36,2.36,0,0,0-.78.38,4.37,4.37,0,0,0-1.15,1.31,4.14,4.14,0,0,0-.55,1.64,2.27,2.27,0,0,0,0,.86,1.17,1.17,0,0,0,.5.69"/><line class="cls-1" x1="220.26" y1="135.4" x2="264.31" y2="160.83"/><line class="cls-1" x1="261.54" y1="165.63" x2="217.49" y2="140.19"/><path class="cls-1" d="M220.26,135.4a1.14,1.14,0,0,0-.85-.09,2.57,2.57,0,0,0-.78.38,4.51,4.51,0,0,0-1.7,2.95,2.26,2.26,0,0,0,.06.86,1.13,1.13,0,0,0,.5.69"/><line class="cls-1" x1="206.55" y1="143.31" x2="240.82" y2="163.09"/><line class="cls-1" x1="238.05" y1="167.89" x2="203.79" y2="148.11"/><path class="cls-1" d="M206.55,143.31a1.12,1.12,0,0,0-.84-.09,2.46,2.46,0,0,0-.78.38,4.2,4.2,0,0,0-1.14,1.31,4.16,4.16,0,0,0-.56,1.64,2.33,2.33,0,0,0,.06.87,1.15,1.15,0,0,0,.5.69"/><path class="cls-1" d="M122.21,206a4.71,4.71,0,0,0,1.39-1.16,2.66,2.66,0,0,0,.64-1.67"/><line class="cls-1" x1="110.39" y1="203.21" x2="110.39" y2="202.37"/><line class="cls-1" x1="124.24" y1="202.37" x2="124.24" y2="203.21"/><path class="cls-1" d="M110.39,203.21a2.63,2.63,0,0,0,.58,1.6,4.8,4.8,0,0,0,1.29,1.13,8.77,8.77,0,0,0,3.24,1.13,12,12,0,0,0,3.44,0,9.24,9.24,0,0,0,3.27-1.06"/><path class="cls-1" d="M122.21,205.19A4.83,4.83,0,0,0,123.6,204a2.71,2.71,0,0,0,.64-1.67"/><path class="cls-1" d="M281.73,192.78a5,5,0,0,0,1.62.61,2.33,2.33,0,0,0,1.67-.29"/><line class="cls-1" x1="277.85" y1="182.08" x2="278.34" y2="181.76"/><line class="cls-1" x1="285.51" y1="192.79" x2="285.02" y2="193.1"/><path class="cls-1" d="M277.85,182.08a2.59,2.59,0,0,0-1,2,6.31,6.31,0,0,0,.21,2.29"/><path class="cls-1" d="M278.34,181.76a2.2,2.2,0,0,1,1.37-.32,4.09,4.09,0,0,1,1.37.36"/><path class="cls-1" d="M285.51,192.79a2,2,0,0,1-.25.14"/><line class="cls-1" x1="281.08" y1="181.8" x2="281.95" y2="182.19"/><line class="cls-1" x1="286.58" y1="189.32" x2="286.59" y2="190.26"/><path class="cls-1" d="M282,182.19a6.72,6.72,0,0,1,1.81,1.27,10.16,10.16,0,0,1,2.4,3.69,6.64,6.64,0,0,1,.42,2.17"/><path class="cls-1" d="M286.59,190.26a4,4,0,0,1-.23,1.41,2.2,2.2,0,0,1-.85,1.12"/><path class="cls-1" d="M271.74,189.78a1.43,1.43,0,0,0-.57,1.19"/><path class="cls-1" d="M280.8,192.14a7.65,7.65,0,0,0,.93.64"/><path class="cls-1" d="M281.08,181.8a7.88,7.88,0,0,1,2.15,1.51,11.21,11.21,0,0,1,1.67,2,11.49,11.49,0,0,1,1.18,2.35,8.1,8.1,0,0,1,.51,2.57"/><path class="cls-1" d="M283.33,190.49a1.29,1.29,0,0,0,.52-.89,3,3,0,0,0,0-1.07,5.66,5.66,0,0,0-.83-2,5.49,5.49,0,0,0-1.46-1.54,2.75,2.75,0,0,0-1-.46,1.33,1.33,0,0,0-1,.12"/><line class="cls-1" x1="198.72" y1="147.83" x2="228.09" y2="164.79"/><line class="cls-1" x1="225.32" y1="169.58" x2="195.96" y2="152.63"/><path class="cls-1" d="M198.72,147.83a1.12,1.12,0,0,0-.84-.08,2.27,2.27,0,0,0-.78.38,4.06,4.06,0,0,0-1.14,1.3,4.16,4.16,0,0,0-.56,1.64,2.32,2.32,0,0,0,.06.87,1.09,1.09,0,0,0,.5.69"/><line class="cls-1" x1="185.02" y1="155.74" x2="204.6" y2="167.05"/><line class="cls-1" x1="201.83" y1="171.84" x2="182.25" y2="160.54"/><path class="cls-1" d="M185,155.74a1.14,1.14,0,0,0-.85-.08,2.36,2.36,0,0,0-.78.38,4.18,4.18,0,0,0-1.14,1.3,4.32,4.32,0,0,0-.56,1.64,2.32,2.32,0,0,0,.06.87,1.13,1.13,0,0,0,.5.69"/><line class="cls-1" x1="300.83" y1="127.18" x2="300.83" y2="155.44"/><line class="cls-1" x1="300.83" y1="155.44" x2="315.42" y2="147.02"/><line class="cls-1" x1="300.83" y1="155.44" x2="276.36" y2="141.31"/><line class="cls-1" x1="276.36" y1="141.31" x2="276.36" y2="113.05"/><line class="cls-1" x1="276.36" y1="113.05" x2="300.83" y2="127.18"/><line class="cls-1" x1="235.92" y1="126.36" x2="289.76" y2="157.44"/><line class="cls-1" x1="286.99" y1="162.24" x2="233.15" y2="131.15"/><path class="cls-1" d="M235.92,126.36a1.07,1.07,0,0,0-.84-.09,2.18,2.18,0,0,0-.78.38,4.41,4.41,0,0,0-1.71,2.95,2.51,2.51,0,0,0,.07.86,1.12,1.12,0,0,0,.49.69"/><line class="cls-1" x1="191.71" y1="205.47" x2="201.01" y2="210.84"/><line class="cls-1" x1="201.01" y1="212.54" x2="191.71" y2="217.91"/><line class="cls-1" x1="201.01" y1="213.67" x2="191.71" y2="219.04"/><line class="cls-1" x1="188.78" y1="217.91" x2="179.47" y2="212.54"/><line class="cls-1" x1="188.78" y1="219.04" x2="179.47" y2="213.67"/><line class="cls-1" x1="179.47" y1="210.84" x2="188.78" y2="205.47"/><line class="cls-1" x1="201.01" y1="213.67" x2="201.01" y2="212.54"/><line class="cls-1" x1="191.71" y1="219.04" x2="191.71" y2="217.91"/><line class="cls-1" x1="188.78" y1="219.04" x2="188.78" y2="217.91"/><line class="cls-1" x1="179.47" y1="213.67" x2="179.47" y2="212.54"/><path class="cls-1" d="M201,210.84a1.05,1.05,0,0,1,.61.85"/><path class="cls-1" d="M188.78,205.47a3.28,3.28,0,0,1,2.93,0"/><path class="cls-1" d="M191.71,217.91a3.22,3.22,0,0,1-2.93,0"/><path class="cls-1" d="M191.71,219a3.22,3.22,0,0,1-2.93,0"/><path class="cls-1" d="M179.47,213.67a1.06,1.06,0,0,1-.6-.85"/><line class="cls-1" x1="201.62" y1="211.69" x2="201.62" y2="212.82"/><path class="cls-1" d="M201.62,212.82a1.05,1.05,0,0,1-.61.85"/><line class="cls-1" x1="178.87" y1="212.82" x2="178.87" y2="211.69"/><path class="cls-1" d="M178.87,211.69a1.06,1.06,0,0,1,.6-.85"/><path class="cls-1" d="M179.47,212.54a1.06,1.06,0,0,1-.6-.85"/><path class="cls-1" d="M201.62,211.69a1.05,1.05,0,0,1-.61.85"/><path class="cls-1" d="M135.91,214.8a4.88,4.88,0,0,0,1.4-1.16,2.65,2.65,0,0,0,.63-1.67"/><line class="cls-1" x1="124.1" y1="211.97" x2="124.1" y2="211.13"/><line class="cls-1" x1="137.94" y1="211.13" x2="137.94" y2="211.97"/><path class="cls-1" d="M124.1,212a2.69,2.69,0,0,0,.57,1.6,4.69,4.69,0,0,0,1.3,1.13,8.7,8.7,0,0,0,3.24,1.13,12,12,0,0,0,3.44,0,9.19,9.19,0,0,0,3.26-1.06"/><path class="cls-1" d="M135.91,214a5,5,0,0,0,1.4-1.15,2.7,2.7,0,0,0,.63-1.67"/><path class="cls-1" d="M245.08,189.68a2.76,2.76,0,0,0-.51-1.5,3.65,3.65,0,0,0-1.19-1.09,3.05,3.05,0,0,0-1.53-.44,1.81,1.81,0,0,0-1.44.62"/><path class="cls-1" d="M221.67,218.66a2.74,2.74,0,0,0-.51-1.51,3.59,3.59,0,0,0-1.18-1.08,3.06,3.06,0,0,0-1.53-.45,1.81,1.81,0,0,0-1.44.62"/><line class="cls-1" x1="244.72" y1="190.75" x2="221.32" y2="219.72"/><line class="cls-1" x1="217.01" y1="216.24" x2="240.41" y2="187.27"/><path class="cls-1" d="M244.72,190.75a1.67,1.67,0,0,0,.36-1.07"/><line class="cls-1" x1="143.81" y1="185.68" x2="140.85" y2="184.74"/><path class="cls-1" d="M274.19,195.61a1.49,1.49,0,0,0,1.32,0"/><path class="cls-1" d="M272.11,190.35a1,1,0,0,1,.83-.09,2.26,2.26,0,0,1,.77.36,4.61,4.61,0,0,1,1.17,1.24,4.51,4.51,0,0,1,.65,1.57,2.21,2.21,0,0,1,0,.85,1.07,1.07,0,0,1-.43.72"/><path class="cls-1" d="M228,234.42a2.11,2.11,0,0,0,.7,1.83,3.27,3.27,0,0,0,1.84.83,3.07,3.07,0,0,0,2-.42,2,2,0,0,0,1-1.69"/><path class="cls-1" d="M143.88,186.13a8.41,8.41,0,0,1,1.38-6.24,6.54,6.54,0,0,1,2.41-2.17,4.14,4.14,0,0,1,3.18-.33"/><line class="cls-1" x1="148.37" y1="184.78" x2="149.48" y2="186.02"/><line class="cls-1" x1="150.42" y1="181.98" x2="148.84" y2="182.76"/><path class="cls-1" d="M144.32,186.27a5.64,5.64,0,0,0,1,2.31,4,4,0,0,0,2,1.48"/><path class="cls-1" d="M151.29,177.52a4.19,4.19,0,0,0-3.18.34,6.65,6.65,0,0,0-2.42,2.17,8.41,8.41,0,0,0-1.37,6.24"/><line class="cls-1" x1="237.55" y1="212.84" x2="272.11" y2="190.35"/><line class="cls-1" x1="275.13" y1="195" x2="240.57" y2="217.48"/><path class="cls-1" d="M277.61,160.4a1.74,1.74,0,0,0-.21-.89,1,1,0,0,0-.63-.48,1.33,1.33,0,0,0-.79.09,2.73,2.73,0,0,0-.8.49,4.6,4.6,0,0,0-1.05,1.38,4.52,4.52,0,0,0-.33.89,2.94,2.94,0,0,0-.11.78,1.83,1.83,0,0,0,.21.89,1,1,0,0,0,.64.49,1.43,1.43,0,0,0,.79-.09,2.68,2.68,0,0,0,.79-.49,4.4,4.4,0,0,0,1.05-1.38,4.19,4.19,0,0,0,.34-.89A3.49,3.49,0,0,0,277.61,160.4Z"/><path class="cls-1" d="M253.14,163.23a1.74,1.74,0,0,0-.21-.89,1,1,0,0,0-.63-.48,1.45,1.45,0,0,0-.8.08,2.52,2.52,0,0,0-.79.5,4.25,4.25,0,0,0-1.05,1.37,3.68,3.68,0,0,0-.33.89,3,3,0,0,0-.11.79,1.74,1.74,0,0,0,.21.89,1,1,0,0,0,.63.48,1.45,1.45,0,0,0,.8-.08,3.11,3.11,0,0,0,.79-.5,4.44,4.44,0,0,0,1-1.38A4,4,0,0,0,253,164,2.94,2.94,0,0,0,253.14,163.23Z"/><path class="cls-1" d="M168,167.4a2.3,2.3,0,0,0-.58-.77,3.21,3.21,0,0,0-.94-.56,5.66,5.66,0,0,0-2-.34,10.59,10.59,0,0,0-7.35,3.38,5.58,5.58,0,0,0-1.07,1.76,2.74,2.74,0,0,0,0,2"/><line class="cls-1" x1="162.68" y1="179.8" x2="158.9" y2="171.6"/><line class="cls-1" x1="165.19" y1="168.7" x2="168.96" y2="176.91"/><line class="cls-1" x1="182.32" y1="163.58" x2="182.32" y2="172.62"/><line class="cls-1" x1="175.4" y1="172.62" x2="175.4" y2="163.58"/><line class="cls-1" x1="383.06" y1="169" x2="383.06" y2="154.88"/><line class="cls-1" x1="349.78" y1="161.1" x2="349.78" y2="142.45"/><line class="cls-1" x1="315.42" y1="152.56" x2="315.42" y2="129.95"/><line class="cls-1" x1="315.42" y1="129.95" x2="335" y2="141.26"/><path class="cls-1" d="M137.94,197.84a2.71,2.71,0,0,0-.64-1.68,5.13,5.13,0,0,0-1.62-1.27,8.35,8.35,0,0,0-1.68-.65,11.07,11.07,0,0,0-2.07-.36,11.56,11.56,0,0,0-3.88.35,8.7,8.7,0,0,0-2,.8,4.88,4.88,0,0,0-1.37,1.15,2.55,2.55,0,0,0,.18,3.54,5.28,5.28,0,0,0,1.41,1.06,9,9,0,0,0,2,.74,11.59,11.59,0,0,0,3.89.26,10.49,10.49,0,0,0,2.08-.41,7.56,7.56,0,0,0,1.63-.7"/><path class="cls-1" d="M216.92,167.18a1.74,1.74,0,0,0-.21-.89,1,1,0,0,0-.63-.48,1.33,1.33,0,0,0-.79.09,2.73,2.73,0,0,0-.8.49,4.56,4.56,0,0,0-1.05,1.38,4.15,4.15,0,0,0-.33.89,3,3,0,0,0-.11.78,1.89,1.89,0,0,0,.21.9,1,1,0,0,0,.63.48,1.37,1.37,0,0,0,.8-.09,2.68,2.68,0,0,0,.79-.49,4.4,4.4,0,0,0,1-1.38,4.15,4.15,0,0,0,.33-.89A3,3,0,0,0,216.92,167.18Z"/><path class="cls-1" d="M264.88,162.1a1.82,1.82,0,0,0-.2-.89,1,1,0,0,0-.64-.48,1.43,1.43,0,0,0-.79.08,2.68,2.68,0,0,0-.79.49,4.59,4.59,0,0,0-1.06,1.38,4.76,4.76,0,0,0-.33.89,3.49,3.49,0,0,0-.1.79,1.84,1.84,0,0,0,.2.89,1,1,0,0,0,.64.48,1.34,1.34,0,0,0,.79-.09,2.68,2.68,0,0,0,.79-.49,4.47,4.47,0,0,0,1.06-1.38,4.52,4.52,0,0,0,.33-.89A2.93,2.93,0,0,0,264.88,162.1Z"/><path class="cls-1" d="M241.39,164.36a1.74,1.74,0,0,0-.21-.89.93.93,0,0,0-.63-.48,1.41,1.41,0,0,0-.79.08,2.69,2.69,0,0,0-.8.5,4.55,4.55,0,0,0-1.05,1.37,4.76,4.76,0,0,0-.33.89,3,3,0,0,0-.1.79,1.84,1.84,0,0,0,.2.89,1,1,0,0,0,.64.48,1.43,1.43,0,0,0,.79-.08,2.94,2.94,0,0,0,.79-.5,4.29,4.29,0,0,0,1-1.38,4,4,0,0,0,.34-.89A3.4,3.4,0,0,0,241.39,164.36Z"/><path class="cls-1" d="M124.24,202.37a2.67,2.67,0,0,0-.65-1.69,5.24,5.24,0,0,0-1.61-1.27,8.35,8.35,0,0,0-1.68-.65,11.21,11.21,0,0,0-2.07-.36,11.77,11.77,0,0,0-3.88.35,8.33,8.33,0,0,0-1.95.8A4.88,4.88,0,0,0,111,200.7a2.55,2.55,0,0,0,.17,3.54,5.49,5.49,0,0,0,1.42,1.06,8.21,8.21,0,0,0,2,.74,11.51,11.51,0,0,0,3.88.26,10.35,10.35,0,0,0,2.08-.41,7.43,7.43,0,0,0,1.64-.7"/><path class="cls-1" d="M285,193.1a2.45,2.45,0,0,0,1-1.7,5.71,5.71,0,0,0,0-2,11.4,11.4,0,0,0-4.34-6.66,5.52,5.52,0,0,0-1.83-.87,2.46,2.46,0,0,0-2,.23"/><line class="cls-1" x1="271.74" y1="189.78" x2="279.55" y2="184.69"/><line class="cls-1" x1="283.33" y1="190.49" x2="275.51" y2="195.58"/><path class="cls-1" d="M275.51,195.58a1.32,1.32,0,0,0,.53-.9,2.9,2.9,0,0,0,0-1.06,5.56,5.56,0,0,0-.82-2,5.67,5.67,0,0,0-1.46-1.55,3.15,3.15,0,0,0-1-.46,1.29,1.29,0,0,0-1,.13"/><path class="cls-1" d="M228.66,166.05a1.84,1.84,0,0,0-.2-.89,1,1,0,0,0-.64-.48,1.35,1.35,0,0,0-.79.09,2.68,2.68,0,0,0-.79.49,4.4,4.4,0,0,0-1.05,1.38,4.19,4.19,0,0,0-.34.89,3.47,3.47,0,0,0-.1.78,1.78,1.78,0,0,0,.21.9,1,1,0,0,0,.63.48,1.33,1.33,0,0,0,.79-.09,2.87,2.87,0,0,0,.8-.49,4.56,4.56,0,0,0,1.38-2.27A3,3,0,0,0,228.66,166.05Z"/><path class="cls-1" d="M205.17,168.31a1.84,1.84,0,0,0-.2-.89,1,1,0,0,0-.64-.48,1.33,1.33,0,0,0-.79.09,2.87,2.87,0,0,0-.8.49,4.56,4.56,0,0,0-1.38,2.27,3,3,0,0,0-.1.79,1.84,1.84,0,0,0,.2.89,1,1,0,0,0,.64.48,1.34,1.34,0,0,0,.79-.09,2.68,2.68,0,0,0,.79-.49,4.59,4.59,0,0,0,1.06-1.38,4.76,4.76,0,0,0,.33-.89A3.49,3.49,0,0,0,205.17,168.31Z"/><path class="cls-1" d="M290.33,158.71a1.82,1.82,0,0,0-.2-.89,1,1,0,0,0-.64-.48,1.43,1.43,0,0,0-.79.08,2.68,2.68,0,0,0-.79.49,4.4,4.4,0,0,0-1.05,1.38,4.19,4.19,0,0,0-.34.89,3.49,3.49,0,0,0-.1.79,1.74,1.74,0,0,0,.21.89,1,1,0,0,0,.63.48,1.33,1.33,0,0,0,.79-.09,2.87,2.87,0,0,0,.8-.49,4.6,4.6,0,0,0,1-1.38,4.76,4.76,0,0,0,.33-.89A2.93,2.93,0,0,0,290.33,158.71Z"/><path class="cls-1" d="M137.94,211.13a2.72,2.72,0,0,0-.64-1.69,5.28,5.28,0,0,0-1.62-1.27,8.35,8.35,0,0,0-1.68-.65,11.07,11.07,0,0,0-2.07-.36,11.82,11.82,0,0,0-3.88.35,8.7,8.7,0,0,0-2,.8,4.88,4.88,0,0,0-1.37,1.15,2.55,2.55,0,0,0,.18,3.54,5.28,5.28,0,0,0,1.41,1.06,8.53,8.53,0,0,0,2,.74,11.59,11.59,0,0,0,3.89.26,10.49,10.49,0,0,0,2.08-.41,7.56,7.56,0,0,0,1.63-.7"/><path class="cls-1" d="M217,216.24a1.72,1.72,0,0,0-.35,1,2.41,2.41,0,0,0,.23,1.06,3.6,3.6,0,0,0,1.46,1.58,2.86,2.86,0,0,0,2.1.37,1.58,1.58,0,0,0,1.22-1.61"/></g></svg>